<?xml version="1.0" encoding="UTF-8" standalone="no"?>
<!DOCTYPE svg PUBLIC "-//W3C//DTD SVG 1.1//EN"
 "http://www.w3.org/Graphics/SVG/1.1/DTD/svg11.dtd">
<!-- Generated by graphviz version 12.1.1 (20240910.0053)
 -->
<!-- Title: INFRA Pages: 1 -->
<svg width="1410pt" height="296pt"
 viewBox="0.00 0.00 1409.67 296.00" xmlns="http://www.w3.org/2000/svg" xmlns:xlink="http://www.w3.org/1999/xlink">
<g id="graph0" class="graph" transform="scale(1 1) rotate(0) translate(4 292)">
<title>INFRA</title>
<polygon fill="white" stroke="none" points="-4,4 -4,-292 1405.67,-292 1405.67,4 -4,4"/>
<!-- OpenVPN Server -->
<g id="node1" class="node">
<title>OpenVPN Server</title>
<path fill="#b7e0ff" stroke="black" stroke-width="2" d="M160.39,-180C160.39,-180 31.46,-180 31.46,-180 25.46,-180 19.46,-174 19.46,-168 19.46,-168 19.46,-120 19.46,-120 19.46,-114 25.46,-108 31.46,-108 31.46,-108 160.39,-108 160.39,-108 166.39,-108 172.39,-114 172.39,-120 172.39,-120 172.39,-168 172.39,-168 172.39,-174 166.39,-180 160.39,-180"/>
<text text-anchor="middle" x="95.92" y="-148.2" font-family="Arial" font-size="14.00">OpenVPN Server</text>
<text text-anchor="middle" x="95.92" y="-131.4" font-family="Arial" font-size="14.00">(AWS::EC2::Instance)</text>
</g>
<!-- OpenVPN Security Group -->
<g id="node2" class="node">
<title>OpenVPN Security Group</title>
<path fill="#e6e6e6" stroke="black" stroke-width="2" d="M178.67,-72C178.67,-72 13.18,-72 13.18,-72 7.18,-72 1.18,-66 1.18,-60 1.18,-60 1.18,-12 1.18,-12 1.18,-6 7.18,0 13.18,0 13.18,0 178.67,0 178.67,0 184.67,0 190.67,-6 190.67,-12 190.67,-12 190.67,-60 190.67,-60 190.67,-66 184.67,-72 178.67,-72"/>
<text text-anchor="middle" x="95.92" y="-40.2" font-family="Arial" font-size="14.00">OpenVPN Security Group</text>
<text text-anchor="middle" x="95.92" y="-23.4" font-family="Arial" font-size="14.00">(AWS::EC2::SecurityGroup)</text>
</g>
<!-- OpenVPN Server&#45;&gt;OpenVPN Security Group -->
<g id="edge1" class="edge">
<title>OpenVPN Server&#45;&gt;OpenVPN Security Group</title>
<path fill="none" stroke="black" d="M95.92,-107.7C95.92,-99.93 95.92,-91.57 95.92,-83.43"/>
<polygon fill="black" stroke="black" points="99.42,-83.66 95.92,-73.66 92.42,-83.66 99.42,-83.66"/>
</g>
<!-- Route53 DNS Record -->
<g id="node3" class="node">
<title>Route53 DNS Record</title>
<path fill="#e6e6e6" stroke="black" stroke-width="2" d="M179.85,-288C179.85,-288 12,-288 12,-288 6,-288 0,-282 0,-276 0,-276 0,-228 0,-228 0,-222 6,-216 12,-216 12,-216 179.85,-216 179.85,-216 185.85,-216 191.85,-222 191.85,-228 191.85,-228 191.85,-276 191.85,-276 191.85,-282 185.85,-288 179.85,-288"/>
<text text-anchor="middle" x="95.92" y="-256.2" font-family="Arial" font-size="14.00">Route53 DNS Record</text>
<text text-anchor="middle" x="95.92" y="-239.4" font-family="Arial" font-size="14.00">(AWS::Route53::RecordSet)</text>
</g>
<!-- Route53 DNS Record&#45;&gt;OpenVPN Server -->
<g id="edge2" class="edge">
<title>Route53 DNS Record&#45;&gt;OpenVPN Server</title>
<path fill="none" stroke="black" d="M95.92,-215.7C95.92,-207.93 95.92,-199.57 95.92,-191.43"/>
<polygon fill="black" stroke="black" points="99.42,-191.66 95.92,-181.66 92.42,-191.66 99.42,-191.66"/>
</g>
<!-- Nginx Web Server -->
<g id="node4" class="node">
<title>Nginx Web Server</title>
<path fill="#b7e0ff" stroke="black" stroke-width="2" d="M350.39,-288C350.39,-288 221.46,-288 221.46,-288 215.46,-288 209.46,-282 209.46,-276 209.46,-276 209.46,-228 209.46,-228 209.46,-222 215.46,-216 221.46,-216 221.46,-216 350.39,-216 350.39,-216 356.39,-216 362.39,-222 362.39,-228 362.39,-228 362.39,-276 362.39,-276 362.39,-282 356.39,-288 350.39,-288"/>
<text text-anchor="middle" x="285.92" y="-256.2" font-family="Arial" font-size="14.00">Nginx Web Server</text>
<text text-anchor="middle" x="285.92" y="-239.4" font-family="Arial" font-size="14.00">(AWS::EC2::Instance)</text>
</g>
<!-- Nginx Security Group -->
<g id="node5" class="node">
<title>Nginx Security Group</title>
<path fill="#e6e6e6" stroke="black" stroke-width="2" d="M368.67,-180C368.67,-180 203.18,-180 203.18,-180 197.18,-180 191.18,-174 191.18,-168 191.18,-168 191.18,-120 191.18,-120 191.18,-114 197.18,-108 203.18,-108 203.18,-108 368.67,-108 368.67,-108 374.67,-108 380.67,-114 380.67,-120 380.67,-120 380.67,-168 380.67,-168 380.67,-174 374.67,-180 368.67,-180"/>
<text text-anchor="middle" x="285.92" y="-148.2" font-family="Arial" font-size="14.00">Nginx Security Group</text>
<text text-anchor="middle" x="285.92" y="-131.4" font-family="Arial" font-size="14.00">(AWS::EC2::SecurityGroup)</text>
</g>
<!-- Nginx Web Server&#45;&gt;Nginx Security Group -->
<g id="edge3" class="edge">
<title>Nginx Web Server&#45;&gt;Nginx Security Group</title>
<path fill="none" stroke="black" d="M285.92,-215.7C285.92,-207.93 285.92,-199.57 285.92,-191.43"/>
<polygon fill="black" stroke="black" points="289.42,-191.66 285.92,-181.66 282.42,-191.66 289.42,-191.66"/>
</g>
<!-- Artifactory Server -->
<g id="node6" class="node">
<title>Artifactory Server</title>
<path fill="#b7e0ff" stroke="black" stroke-width="2" d="M657.39,-288C657.39,-288 528.46,-288 528.46,-288 522.46,-288 516.46,-282 516.46,-276 516.46,-276 516.46,-228 516.46,-228 516.46,-222 522.46,-216 528.46,-216 528.46,-216 657.39,-216 657.39,-216 663.39,-216 669.39,-222 669.39,-228 669.39,-228 669.39,-276 669.39,-276 669.39,-282 663.39,-288 657.39,-288"/>
<text text-anchor="middle" x="592.92" y="-256.2" font-family="Arial" font-size="14.00">Artifactory Server</text>
<text text-anchor="middle" x="592.92" y="-239.4" font-family="Arial" font-size="14.00">(AWS::EC2::Instance)</text>
</g>
<!-- Artifactory Security Group -->
<g id="node7" class="node">
<title>Artifactory Security Group</title>
<path fill="#e6e6e6" stroke="black" stroke-width="2" d="M575.67,-180C575.67,-180 410.18,-180 410.18,-180 404.18,-180 398.18,-174 398.18,-168 398.18,-168 398.18,-120 398.18,-120 398.18,-114 404.18,-108 410.18,-108 410.18,-108 575.67,-108 575.67,-108 581.67,-108 587.67,-114 587.67,-120 587.67,-120 587.67,-168 587.67,-168 587.67,-174 581.67,-180 575.67,-180"/>
<text text-anchor="middle" x="492.92" y="-148.2" font-family="Arial" font-size="14.00">Artifactory Security Group</text>
<text text-anchor="middle" x="492.92" y="-131.4" font-family="Arial" font-size="14.00">(AWS::EC2::SecurityGroup)</text>
</g>
<!-- Artifactory Server&#45;&gt;Artifactory Security Group -->
<g id="edge4" class="edge">
<title>Artifactory Server&#45;&gt;Artifactory Security Group</title>
<path fill="none" stroke="black" d="M559.63,-215.7C551.36,-206.94 542.41,-197.45 533.82,-188.35"/>
<polygon fill="black" stroke="black" points="536.52,-186.12 527.12,-181.24 531.43,-190.92 536.52,-186.12"/>
</g>
<!-- Artifactory Database -->
<g id="node8" class="node">
<title>Artifactory Database</title>
<path fill="#ffcfb3" stroke="black" stroke-width="2" d="M780.28,-173.45C780.28,-177.07 741.12,-180 692.92,-180 644.72,-180 605.57,-177.07 605.57,-173.45 605.57,-173.45 605.57,-114.55 605.57,-114.55 605.57,-110.93 644.72,-108 692.92,-108 741.12,-108 780.28,-110.93 780.28,-114.55 780.28,-114.55 780.28,-173.45 780.28,-173.45"/>
<path fill="none" stroke="black" stroke-width="2" d="M780.28,-173.45C780.28,-169.84 741.12,-166.91 692.92,-166.91 644.72,-166.91 605.57,-169.84 605.57,-173.45"/>
<text text-anchor="middle" x="692.92" y="-148.2" font-family="Arial" font-size="14.00">Artifactory Database</text>
<text text-anchor="middle" x="692.92" y="-131.4" font-family="Arial" font-size="14.00">(AWS::RDS::DBInstance)</text>
</g>
<!-- Artifactory Server&#45;&gt;Artifactory Database -->
<g id="edge5" class="edge">
<title>Artifactory Server&#45;&gt;Artifactory Database</title>
<path fill="none" stroke="black" d="M626.22,-215.7C634.49,-206.94 643.44,-197.45 652.02,-188.35"/>
<polygon fill="black" stroke="black" points="654.42,-190.92 658.73,-181.24 649.32,-186.12 654.42,-190.92"/>
</g>
<!-- Artifactory Database Security Group -->
<g id="node9" class="node">
<title>Artifactory Database Security Group</title>
<path fill="#e6e6e6" stroke="black" stroke-width="2" d="M800.97,-72C800.97,-72 584.88,-72 584.88,-72 578.88,-72 572.88,-66 572.88,-60 572.88,-60 572.88,-12 572.88,-12 572.88,-6 578.88,0 584.88,0 584.88,0 800.97,0 800.97,0 806.97,0 812.97,-6 812.97,-12 812.97,-12 812.97,-60 812.97,-60 812.97,-66 806.97,-72 800.97,-72"/>
<text text-anchor="middle" x="692.92" y="-40.2" font-family="Arial" font-size="14.00">Artifactory Database Security Group</text>
<text text-anchor="middle" x="692.92" y="-23.4" font-family="Arial" font-size="14.00">(AWS::EC2::SecurityGroup)</text>
</g>
<!-- Artifactory Database&#45;&gt;Artifactory Database Security Group -->
<g id="edge6" class="edge">
<title>Artifactory Database&#45;&gt;Artifactory Database Security Group</title>
<path fill="none" stroke="black" d="M692.92,-107.7C692.92,-99.93 692.92,-91.57 692.92,-83.43"/>
<polygon fill="black" stroke="black" points="696.42,-83.66 692.92,-73.66 689.42,-83.66 696.42,-83.66"/>
</g>
<!-- Jenkins Server -->
<g id="node10" class="node">
<title>Jenkins Server</title>
<path fill="#b7e0ff" stroke="black" stroke-width="2" d="M957.39,-288C957.39,-288 828.46,-288 828.46,-288 822.46,-288 816.46,-282 816.46,-276 816.46,-276 816.46,-228 816.46,-228 816.46,-222 822.46,-216 828.46,-216 828.46,-216 957.39,-216 957.39,-216 963.39,-216 969.39,-222 969.39,-228 969.39,-228 969.39,-276 969.39,-276 969.39,-282 963.39,-288 957.39,-288"/>
<text text-anchor="middle" x="892.92" y="-256.2" font-family="Arial" font-size="14.00">Jenkins Server</text>
<text text-anchor="middle" x="892.92" y="-239.4" font-family="Arial" font-size="14.00">(AWS::EC2::Instance)</text>
</g>
<!-- Jenkins Security Group -->
<g id="node11" class="node">
<title>Jenkins Security Group</title>
<path fill="#e6e6e6" stroke="black" stroke-width="2" d="M975.67,-180C975.67,-180 810.18,-180 810.18,-180 804.18,-180 798.18,-174 798.18,-168 798.18,-168 798.18,-120 798.18,-120 798.18,-114 804.18,-108 810.18,-108 810.18,-108 975.67,-108 975.67,-108 981.67,-108 987.67,-114 987.67,-120 987.67,-120 987.67,-168 987.67,-168 987.67,-174 981.67,-180 975.67,-180"/>
<text text-anchor="middle" x="892.92" y="-148.2" font-family="Arial" font-size="14.00">Jenkins Security Group</text>
<text text-anchor="middle" x="892.92" y="-131.4" font-family="Arial" font-size="14.00">(AWS::EC2::SecurityGroup)</text>
</g>
<!-- Jenkins Server&#45;&gt;Jenkins Security Group -->
<g id="edge7" class="edge">
<title>Jenkins Server&#45;&gt;Jenkins Security Group</title>
<path fill="none" stroke="black" d="M892.92,-215.7C892.92,-207.93 892.92,-199.57 892.92,-191.43"/>
<polygon fill="black" stroke="black" points="896.42,-191.66 892.92,-181.66 889.42,-191.66 896.42,-191.66"/>
</g>
<!-- Nexus Server -->
<g id="node12" class="node">
<title>Nexus Server</title>
<path fill="#b7e0ff" stroke="black" stroke-width="2" d="M1164.39,-288C1164.39,-288 1035.46,-288 1035.46,-288 1029.46,-288 1023.46,-282 1023.46,-276 1023.46,-276 1023.46,-228 1023.46,-228 1023.46,-222 1029.46,-216 1035.46,-216 1035.46,-216 1164.39,-216 1164.39,-216 1170.39,-216 1176.39,-222 1176.39,-228 1176.39,-228 1176.39,-276 1176.39,-276 1176.39,-282 1170.39,-288 1164.39,-288"/>
<text text-anchor="middle" x="1099.92" y="-256.2" font-family="Arial" font-size="14.00">Nexus Server</text>
<text text-anchor="middle" x="1099.92" y="-239.4" font-family="Arial" font-size="14.00">(AWS::EC2::Instance)</text>
</g>
<!-- Nexus Security Group -->
<g id="node13" class="node">
<title>Nexus Security Group</title>
<path fill="#e6e6e6" stroke="black" stroke-width="2" d="M1182.67,-180C1182.67,-180 1017.18,-180 1017.18,-180 1011.18,-180 1005.18,-174 1005.18,-168 1005.18,-168 1005.18,-120 1005.18,-120 1005.18,-114 1011.18,-108 1017.18,-108 1017.18,-108 1182.67,-108 1182.67,-108 1188.67,-108 1194.67,-114 1194.67,-120 1194.67,-120 1194.67,-168 1194.67,-168 1194.67,-174 1188.67,-180 1182.67,-180"/>
<text text-anchor="middle" x="1099.92" y="-148.2" font-family="Arial" font-size="14.00">Nexus Security Group</text>
<text text-anchor="middle" x="1099.92" y="-131.4" font-family="Arial" font-size="14.00">(AWS::EC2::SecurityGroup)</text>
</g>
<!-- Nexus Server&#45;&gt;Nexus Security Group -->
<g id="edge8" class="edge">
<title>Nexus Server&#45;&gt;Nexus Security Group</title>
<path fill="none" stroke="black" d="M1099.92,-215.7C1099.92,-207.93 1099.92,-199.57 1099.92,-191.43"/>
<polygon fill="black" stroke="black" points="1103.42,-191.66 1099.92,-181.66 1096.42,-191.66 1103.42,-191.66"/>
</g>
<!-- Vault Server -->
<g id="node14" class="node">
<title>Vault Server</title>
<path fill="#b7e0ff" stroke="black" stroke-width="2" d="M1371.39,-288C1371.39,-288 1242.46,-288 1242.46,-288 1236.46,-288 1230.46,-282 1230.46,-276 1230.46,-276 1230.46,-228 1230.46,-228 1230.46,-222 1236.46,-216 1242.46,-216 1242.46,-216 1371.39,-216 1371.39,-216 1377.39,-216 1383.39,-222 1383.39,-228 1383.39,-228 1383.39,-276 1383.39,-276 1383.39,-282 1377.39,-288 1371.39,-288"/>
<text text-anchor="middle" x="1306.92" y="-256.2" font-family="Arial" font-size="14.00">Vault Server</text>
<text text-anchor="middle" x="1306.92" y="-239.4" font-family="Arial" font-size="14.00">(AWS::EC2::Instance)</text>
</g>
<!-- Vault Security Group -->
<g id="node15" class="node">
<title>Vault Security Group</title>
<path fill="#e6e6e6" stroke="black" stroke-width="2" d="M1389.67,-180C1389.67,-180 1224.18,-180 1224.18,-180 1218.18,-180 1212.18,-174 1212.18,-168 1212.18,-168 1212.18,-120 1212.18,-120 1212.18,-114 1218.18,-108 1224.18,-108 1224.18,-108 1389.67,-108 1389.67,-108 1395.67,-108 1401.67,-114 1401.67,-120 1401.67,-120 1401.67,-168 1401.67,-168 1401.67,-174 1395.67,-180 1389.67,-180"/>
<text text-anchor="middle" x="1306.92" y="-148.2" font-family="Arial" font-size="14.00">Vault Security Group</text>
<text text-anchor="middle" x="1306.92" y="-131.4" font-family="Arial" font-size="14.00">(AWS::EC2::SecurityGroup)</text>
</g>
<!-- Vault Server&#45;&gt;Vault Security Group -->
<g id="edge9" class="edge">
<title>Vault Server&#45;&gt;Vault Security Group</title>
<path fill="none" stroke="black" d="M1306.92,-215.7C1306.92,-207.93 1306.92,-199.57 1306.92,-191.43"/>
<polygon fill="black" stroke="black" points="1310.42,-191.66 1306.92,-181.66 1303.42,-191.66 1310.42,-191.66"/>
</g>
</g>
</svg>
